<?xml version="1.0" standalone="no"?>
<!DOCTYPE svg PUBLIC "-//W3C//DTD SVG 1.1//EN" "http://www.w3.org/Graphics/SVG/1.1/DTD/svg11.dtd" >
<svg xmlns="http://www.w3.org/2000/svg">
<metadata>
Created by FontForge 20120731 at Sun Nov 20 15:33:18 2016
 By admin
</metadata>
<defs>
<font id="iconfont" horiz-adv-x="1024" >
  <font-face 
    font-family="iconfont"
    font-weight="500"
    font-stretch="normal"
    units-per-em="1024"
    panose-1="2 0 6 3 0 0 0 0 0 0"
    ascent="896"
    descent="-128"
    x-height="792"
    bbox="-0.227273 -128 1800.06 908"
    underline-thickness="0"
    underline-position="0"
    unicode-range="U+0078-E659"
  />
<missing-glyph 
 />
    <glyph glyph-name=".notdef" 
 />
    <glyph glyph-name=".notdef" 
 />
    <glyph glyph-name=".null" horiz-adv-x="0" 
 />
    <glyph glyph-name="nonmarkingreturn" horiz-adv-x="341" 
 />
    <glyph glyph-name="x" unicode="x" horiz-adv-x="1001" 
d="M281 543q-27 -1 -53 -1h-83q-18 0 -36.5 -6t-32.5 -18.5t-23 -32t-9 -45.5v-76h912v41q0 16 -0.5 30t-0.5 18q0 13 -5 29t-17 29.5t-31.5 22.5t-49.5 9h-133v-97h-438v97zM955 310v-52q0 -23 0.5 -52t0.5 -58t-10.5 -47.5t-26 -30t-33 -16t-31.5 -4.5q-14 -1 -29.5 -0.5
t-29.5 0.5h-32l-45 128h-439l-44 -128h-29h-34q-20 0 -45 1q-25 0 -41 9.5t-25.5 23t-13.5 29.5t-4 30v167h911zM163 247q-12 0 -21 -8.5t-9 -21.5t9 -21.5t21 -8.5q13 0 22 8.5t9 21.5t-9 21.5t-22 8.5zM316 123q-8 -26 -14 -48q-5 -19 -10.5 -37t-7.5 -25t-3 -15t1 -14.5
t9.5 -10.5t21.5 -4h37h67h81h80h64h36q23 0 34 12t2 38q-5 13 -9.5 30.5t-9.5 34.5q-5 19 -11 39h-368zM336 498v228q0 11 2.5 23t10 21.5t20.5 15.5t34 6h188q31 0 51.5 -14.5t20.5 -52.5v-227h-327z" />
    <glyph glyph-name="ok" unicode="&#xe61d;" 
d="M510.5 833q-90.5 0 -173.5 -35.5t-143 -95.5t-95.5 -143t-35.5 -173.5t35.5 -173.5t95.5 -143t143 -95.5t173.5 -35.5t173.5 35.5t143 95.5t95.5 143t35.5 173.5t-35.5 173.5t-95.5 143t-143 95.5t-173.5 35.5zM788 510l-333 -334q-6 -6 -14.5 -6t-14.5 6l-44 44v0
l-145 145q-6 6 -6 14.5t6 14.5l44 44q6 6 14.5 6t14.5 -6l130 -131l276 276q6 6 14.5 6t14.5 -6l43 -44q6 -6 6 -14.5t-6 -14.5z" />
    <glyph glyph-name="redact" unicode="&#xe601;" 
d="M803 -128h-659q-46 0 -78 32t-32 78v733q0 46 32 78t78 32h513q22 0 31 -18.5t0 -36.5t-31 -18h-513q-15 0 -26 -11t-11 -26v-733q0 -15 11 -26t26 -11h659q15 0 26 11t11 26v586q0 23 18.5 32t36.5 0t18 -32v-586q0 -46 -32 -78t-78 -32v0zM562 469q-23 26 0 52l364 365
q11 10 26 10t27 -10q19 -21 5 -45l-5 -8l-364 -364q-12 -11 -27 -11t-26 11v0zM437 458h-220q-22 0 -31 18.5t0 37t31 18.5h220q22 0 31.5 -18.5t0 -37t-31.5 -18.5v0zM657 239h-440q-22 0 -31 18t0 36.5t31 18.5h440q22 0 31 -18.5t0 -36.5t-31 -18z" />
    <glyph glyph-name="password" unicode="&#xe602;" 
d="M778 531h-511v97q0 92 68 155.5t168 63.5q97 0 162 -63t65 -156v-49q0 -10 7 -17t17 -7t17 7t7 17v49q0 114 -78 190.5t-196 77.5h-3q-119 -1 -201 -78.5t-82 -189.5v-100q-62 -9 -104 -56.5t-42 -111.5v-317q0 -70 50 -120t120 -50h536q71 0 121 50t50 120v317
q0 71 -50 121t-121 50zM900 43q0 -50 -35.5 -85.5t-86.5 -35.5h-536q-50 0 -85.5 35.5t-35.5 85.5v317q0 50 35.5 86t85.5 36h536q51 0 86.5 -36t35.5 -86v-317zM510.5 384q-60.5 0 -103.5 -42.5t-43 -103.5q0 -54 35 -94.5t87 -49.5v-0.5v-1.5v-73q0 -10 7 -17t17 -7
t17.5 7t7.5 17v73q0 1 -0.5 1.5l-0.5 0.5q53 9 88 49.5t35 94.5q0 61 -43 103.5t-103.5 42.5zM510.5 141q-40.5 0 -69 28.5t-28.5 69t28.5 69t69 28.5t69 -28.5t28.5 -69t-28.5 -69t-69 -28.5z" />
    <glyph glyph-name="nickname" unicode="&#xe603;" horiz-adv-x="1039" 
d="M905 766h-787q-48 0 -82.5 -34t-34.5 -83v-530q0 -49 34.5 -83t82.5 -34h787q49 0 83.5 34t34.5 83v530q0 49 -34.5 83t-83.5 34v0zM979 119q0 -30 -21.5 -51.5t-52.5 -21.5h-787q-30 0 -51.5 21.5t-21.5 51.5v530q0 30 21.5 51.5t51.5 21.5h787q31 0 52.5 -21.5
t21.5 -51.5v-530zM637 480h163q10 0 16.5 6.5t6.5 15.5t-6.5 15.5t-16.5 6.5h-163q-9 0 -15.5 -6.5t-6.5 -15.5t6.5 -15.5t15.5 -6.5v0zM637 349h163q10 0 16.5 6.5t6.5 15.5t-6.5 15.5t-16.5 6.5h-163q-9 0 -15.5 -6.5t-6.5 -15.5t6.5 -15.5t15.5 -6.5v0zM879 262h-242
q-9 0 -15.5 -6.5t-6.5 -15.5t6.5 -15.5t15.5 -6.5h242q9 0 15.5 6.5t6.5 15.5t-6.5 15.5t-15.5 6.5v0zM485 303q-40 43 -96 59l-3 1l2 2q30 16 47.5 44.5t17.5 62.5q0 50 -35.5 86t-86 36t-86 -36t-35.5 -86q0 -34 17 -62.5t47 -44.5l3 -2l-3 -1q-56 -16 -96 -59
q-41 -43 -52 -102q-2 -9 3.5 -16.5t14.5 -9.5h4q8 0 14 5t8 13q11 58 56.5 96t105 38t105 -38t56.5 -97q2 -7 8 -12.5t14 -5.5q2 0 4 1q9 1 14.5 9t3.5 17q-11 58 -52 102v0zM331 549q32 0 55 -22.5t23 -54.5t-23 -55t-55 -23t-54.5 23t-22.5 55t22.5 54.5t54.5 22.5v0z
M331 549z" />
    <glyph glyph-name="delete" unicode="&#xe604;" 
d="M622 93q-15 0 -27.5 12.5t-12.5 27.5v402q0 15 12.5 27.5t27.5 12.5t28 -12.5t13 -27.5v-402q-8 -7 -14.5 -18.5t-12 -16.5t-14.5 -5v0zM402 93q-15 0 -28 12.5t-13 27.5v402q0 15 13 27.5t28 12.5t27.5 -12.5t12.5 -27.5v-402q0 -15 -12.5 -27.5t-27.5 -12.5v0zM984 715
h-181v81q0 43 -36.5 71.5t-83.5 28.5h-362q-45 0 -72.5 -27.5t-27.5 -72.5v-81h-181q-15 0 -27.5 -12.5t-12.5 -27.5t12.5 -27.5t27.5 -12.5h944q15 0 27.5 12.5t12.5 27.5t-12.5 27.5t-27.5 12.5v0zM281 796q0 15 12.5 27.5t27.5 12.5h362q15 0 27.5 -12.5t12.5 -27.5v-81
h-442v81zM763 -128h-502q-45 0 -82.5 37.5t-37.5 82.5v543q0 15 12.5 27.5t27.5 12.5t27.5 -12.5t12.5 -27.5v-543q0 -15 12.5 -27.5t27.5 -12.5h502q15 0 27.5 12.5t12.5 27.5v543q0 15 12.5 27.5t27.5 12.5t27.5 -12.5t12.5 -27.5v-543q-17 -51 -47.5 -85.5t-72.5 -34.5v0
zM763 -128z" />
    <glyph glyph-name="address" unicode="&#xe605;" 
d="M772 790q-51 50 -118 78t-142 28t-142 -28t-118 -78t-79.5 -116.5t-28.5 -139.5q0 -78 34 -149.5t98 -128.5l236 -211l236 211q64 57 98 128.5t34 149.5q0 74 -28.5 140t-79.5 116zM795 408q-29 -62 -84 -111l-199 -178l-199 178q-55 49 -84 111q-29 60 -29 126
q0 127 91.5 217t220.5 90t220.5 -90t91.5 -217q0 -66 -29 -126zM815 143q-7 8 -18 8.5t-19.5 -6t-10.5 -16.5q-2 -13 7 -23q22 -24 22 -49q0 -48 -76 -87q-85 -43 -208 -43t-208 43q-76 39 -76 87q0 25 22 49q9 10 7 23q-2 11 -11 17.5t-19.5 5.5t-17.5 -9q-37 -40 -37 -86
q0 -40 28 -75t79 -61q97 -49 233 -49t233 49q51 26 79 61t28 75q0 46 -37 86v0zM614 603v0q-42 41 -102 41t-102 -41v0q-43 -42 -43 -101t42.5 -100.5t102.5 -41.5t102.5 41.5t42.5 100.5t-43 101zM575 440.5q-26 -25.5 -63 -25.5t-63 25.5t-26 61.5t26 62v0q26 26 63 26
t63 -26v0q26 -26 26 -62t-26 -61.5z" />
    <glyph glyph-name="bound" unicode="&#xe606;" 
d="M662 -90h-348q-34 0 -58.5 24.5t-24.5 58.5v776q0 34 24.5 58.5t58.5 24.5h348q34 0 58.5 -24.5t24.5 -58.5v-776q0 -34 -24 -58.5t-59 -24.5zM314 814q-18 0 -31.5 -13t-13.5 -32v-776q0 -18 13.5 -31t31.5 -13h348q19 0 32 13t13 31v776q0 19 -13 32t-32 13h-348z
M551 757q0 -7 -4.5 -11.5t-11.5 -4.5h-94q-7 0 -11.5 4.5t-4.5 11.5v0q0 6 4.5 10.5t11.5 4.5h94q7 0 11.5 -4.5t4.5 -10.5v0zM488 -27q-20 0 -34 14t-14 33.5t14 33.5t34 14t34 -14t14 -33.5t-14 -33.5t-34 -14zM488 49q-12 0 -20 -8.5t-8 -20t8 -20t20 -8.5t20.5 8.5
t8.5 20t-8.5 20t-20.5 8.5z" />
    <glyph glyph-name="agreement" unicode="&#xe607;" 
d="M796 896h-568q-82 0 -113 -36.5t-30 -118.5v-714q0 -84 32 -119.5t111 -35.5h568q76 2 110 37.5t33 117.5v714q0 86 -32 120.5t-111 34.5v0v0v0zM895 3q0 -36 -24 -62t-58 -26h-605q-34 0 -57.5 26t-23.5 62v756q0 36 23.5 62t57.5 26h605q34 0 58 -26t24 -62v-756v0z
M248 565h287q12 0 20.5 7.5t8.5 17.5t-8.5 17t-20.5 7h-287q-12 0 -20.5 -7t-8.5 -17t8.5 -17.5t20.5 -7.5v0v0v0zM777 396h-529q-12 0 -20.5 -7t-8.5 -17t8.5 -17t20.5 -7h529q12 0 20.5 7t8.5 17t-8.5 17t-20.5 7v0v0v0zM777 178h-529q-12 0 -20.5 -7t-8.5 -17t8.5 -17
t20.5 -7h529q12 0 20.5 7t8.5 17t-8.5 17t-20.5 7v0v0v0zM777 178z" />
    <glyph glyph-name="verification" unicode="&#xe608;" 
d="M918 628q-55 4 -103 20q-15 4 -31 10q-34 10 -83 36l-1 1q-12 6 -24 13q-15 9 -33 20l-0.5 0.5l-0.5 0.5q-12 8 -23 15q-4 3 -15 11q-1 1 -5 4t-6 4q-43 32 -80 68q-37 -36 -80 -68q-2 -1 -6 -4t-5 -4q-11 -8 -15 -11q-11 -7 -23 -15l-0.5 -0.5l-0.5 -0.5
q-18 -11 -33 -20q-12 -7 -24 -13q0 -1 -1 -1q-49 -26 -83 -36q-16 -6 -30 -10q-49 -16 -104 -20v0q1 -8 3 -61h1q13 -180 50 -282q0 -2 1.5 -5t1.5 -5l1 -1.5t1 -2.5q47 -122 126 -206.5t177 -116.5v-1q22 -7 43 -11q21 4 44 11v1q97 32 176 116.5t126 206.5q1 1 1.5 2.5
l0.5 1.5q1 2 2 5t1 5q37 102 50 282h1q3 53 3 61v0zM871 586l-1 -9q-1 -3 -1 -7q-12 -174 -47 -271q-1 -2 -2 -6l-2 -4q0 -2 -1 -3q-44 -113 -116 -191t-159 -107l-6 -2q-12 -4 -23 -6q-11 2 -23 6l-6 2q-87 29 -159 107t-116 190q0 2 -1 5q-1 0 -2 3q-1 4 -2 6
q-35 97 -47 271q0 4 -1 7l-1 9v2.5v2.5q38 5 70 16q15 4 32 10q38 12 90 40q1 0 2 1q12 6 25 14q15 9 34 21q1 0 1 1q13 8 24 16q5 3 14 9l3 2l4 3q5 4 7 6q27 20 52 42q25 -22 52 -42q3 -2 8 -6l4 -3l1 -1q10 -7 14 -10l24 -16l2 -1q19 -12 34 -21q13 -8 25 -14q1 -1 2 -1
q52 -28 91 -40q16 -6 30 -10q33 -11 71 -16v-5zM711 484l-234 -240l-120 123q-6 7 -15 7t-15 -6.5t-6 -15.5t6 -16l135 -138q6 -6 15 -6t15 6l249 256q7 6 7 15t-6.5 15.5t-15.5 6.5t-15 -7z" />
    <glyph glyph-name="chit" unicode="&#xe609;" 
d="M985 525l-73 76q-10 11 -25 11q-16 -1 -25 -10q-23 -23 -57.5 -22.5t-56.5 23.5q-24 25 -23 58q0 34 24 57q10 10 10.5 24.5t-9.5 24.5l-74 77q-26 26 -64.5 26.5t-64.5 -25.5l-481 -472q-28 -27 -28 -64q0 -38 26 -65l74 -76q10 -11 24 -11q15 0 25 10q23 23 57.5 22.5
t57.5 -23.5q23 -25 23 -58q-1 -34 -25 -57q-10 -10 -10.5 -24.5t9.5 -25.5l75 -76q26 -27 65 -27q37 0 63 26l482 472q27 27 27 65q1 37 -26 64zM356 304q-14 0 -24.5 10.5t-10.5 25t10 24.5l195 194q10 11 24 11t24.5 -10.5t10.5 -25t-10 -24.5l-194 -194q-11 -11 -25 -11z
M679 405l-195 -195q-10 -10 -24 -10t-24.5 10.5t-10.5 25t10 24.5l194 194q11 10 25 10t24.5 -10t10.5 -24.5t-10 -24.5z" />
    <glyph glyph-name="waitAppraise" unicode="&#xe60a;" 
d="M937 43h-195l-146 -145l-145 145h-195q-20 0 -34.5 14.5t-14.5 34.5v145h-146q-20 0 -34 14.5t-14 34.5v485q0 20 14 34t34 14h681q21 0 35 -14t14 -34v-146h146q20 0 34.5 -14t14.5 -34v-485q0 -20 -14.5 -34.5t-34.5 -14.5v0zM937 528q0 27 -11.5 38t-37.5 11h-146v145
q0 29 -10 39t-38 10h-584q-26 0 -37.5 -12t-11.5 -37v-388q0 -26 12 -37t37 -11h146v-146q0 -27 11 -37.5t38 -10.5h194l97 -97l98 97h194q28 0 38.5 11t10.5 37v388zM864 310h-535q-10 0 -17 7t-7 17t7 17t17 7h535q10 0 17 -7t7 -17t-7 -17t-17 -7v0zM669 577h-413v-219
q0 -10 -7 -17t-17 -7t-17.5 7t-7.5 17v243v0v0q0 10 7.5 17t17.5 7h437q11 0 18 -7t7 -17v0q0 -10 -7 -17t-18 -7v0zM669 577z" />
    <glyph glyph-name="waitConsume" unicode="&#xe60b;" 
d="M499 -102q-99 0 -189 38.5t-155 103.5t-103.5 155t-38.5 189t38.5 189t103.5 155t155 103.5t189 38.5v0h1v0v0h8q11 0 18.5 -7.5t7.5 -18t-7.5 -18.5t-18.5 -8v0h-8v-17v0v17v0q-89 0 -169.5 -34t-138.5 -92.5t-92.5 -139t-34.5 -168.5t34.5 -168.5t92.5 -138.5
t138.5 -92.5t168.5 -34.5t168.5 34.5t139 92.5t93 138.5t34.5 168.5v0.5v0.5v0v1q0 10 7.5 18t18 8t18 -8t7.5 -18v-1v0v24q1 -13 1 -25q0 -99 -39 -189t-104 -155t-155 -103.5t-189 -38.5zM985 409v0v0v0zM916 385v0h17v0h-17zM946 690h-252q-14 0 -24 7.5t-10 18.5
t10 18.5t24 7.5h252q14 0 24 -7.5t10 -18.5t-10 -18.5t-24 -7.5zM483 135q0 -9 6 -15.5t14.5 -6.5t15 6.5t6.5 15.5v0v127h125v0q9 0 15 6.5t6 15.5t-6 15t-15 6h-125v67h125v0q9 0 15 6t6 15t-6 15.5t-15 6.5h-125v39l124 126v0q7 6 7.5 15t-5.5 15.5t-14.5 7t-15.5 -5.5
l-117 -119l-123 125q-6 6 -15 5.5t-14.5 -7.5t-5 -15.5t6.5 -14.5v0l130 -131v-40h-126v0q-9 0 -15 -6.5t-6 -15.5t6 -15t15 -6v0h126v-67h-126q-9 0 -15 -6.5t-6 -15t6 -15t15 -6.5v0h126v-128v0v1zM483 135z" />
    <glyph glyph-name="waitPay" unicode="&#xe60c;" 
d="M964 362q-9 0 -15 6.5t-6 15.5q0 90 -35.5 172t-95 141.5t-141.5 94.5t-172 35t-172 -35t-141.5 -94.5t-94.5 -141.5t-35 -172t35 -172t94.5 -141.5t141.5 -94.5t172 -35q9 0 15.5 -6.5t6.5 -15.5t-6.5 -15t-15.5 -6q-99 0 -189 38.5t-155 103.5t-103.5 155t-38.5 189
t38.5 189t103.5 155t155 103.5t189 38.5t189 -38.5t155 -103.5t104 -155t39 -189q0 -9 -6.5 -15.5t-15.5 -6.5zM271 301h-5q-17 0 -21 16q-2 9 2.5 16.5t13.5 9.5l230 56l38 211q2 9 9.5 14t16 3.5t13.5 -9t4 -16.5l-41 -225q-3 -13 -16 -17zM621 130q-9 0 -15.5 6t-6.5 15
t6.5 15.5t15.5 6.5h88l-105 136q-6 7 -4.5 15.5t8.5 14t16 4.5t14 -8l110 -142l109 142q6 7 14.5 8t16 -4.5t8.5 -14t-5 -15.5l-104 -136h87q9 0 15.5 -6.5t6.5 -15.5t-6.5 -15t-15.5 -6h-105v-59h105q9 0 15.5 -6.5t6.5 -15.5t-6.5 -15t-15.5 -6h-105v-108q0 -8 -6 -14.5
t-15 -6.5t-15.5 6.5t-6.5 14.5v108h-105q-9 0 -15.5 6t-6.5 15t6.5 15.5t15.5 6.5h105v59h-105z" />
    <glyph glyph-name="shops" unicode="&#xe60d;" 
d="M817 770q15 0 15 -30v-153v-2v-2v-2q0 -30 -17 -53.5t-52 -23.5q-34 0 -59 24q-23 22 -23 53q0 4 1 10q2 14 -4.5 26.5t-19.5 17.5l-2 2q-9 4 -19 4q-13 0 -25 -8q-20 -15 -16 -40q1 -7 1 -12v0v0q0 -31 -24 -53.5t-57.5 -22.5t-57.5 22.5t-24 53.5q0 5 1 12q4 25 -16 41
q-11 8 -25 8q-10 0 -19 -4l-3 -2q-12 -6 -18.5 -18t-4.5 -26q1 -6 1 -11q0 -31 -24 -53.5t-58 -22.5t-59.5 22.5t-25.5 53.5v2v157q0 11 10 21t21 10h603v-1zM817 812h-603q-29 0 -51 -22t-22 -50v-159v0q1 -49 38.5 -84t88.5 -35t87.5 35t36.5 84q0 8 -1 17l3 2
q-2 -11 -2 -19q0 -49 36.5 -84t87.5 -35t87 35t36 84v0v0q0 -49 36.5 -84t87.5 -35q50 0 80.5 34t30.5 85v6v153q0 30 -15 51t-42 21v0zM639 581q0 8 -1 18l2 -1q-1 -10 -1 -17v0zM770 406h-42v-197q0 -21 -15 -36t-36 -15h-328q-21 0 -36.5 15t-15.5 36v197h-42v-197
q0 -38 27.5 -65.5t66.5 -27.5h328q39 0 66.5 27.5t27.5 65.5v197h-1zM203 192zM828 236q-16 0 -20 -16q-2 -8 2 -15.5t13 -9.5q60 -16 91.5 -35.5t31.5 -34.5q0 -22 -51 -46t-152.5 -41t-225 -17t-225.5 17t-152.5 41t-50.5 46q0 14 28 32.5t86 34.5q8 3 12.5 10.5t1.5 15.5
q-4 16 -20 16q-2 0 -5 -1q-145 -41 -145 -108q0 -46 70 -80t175 -50t225.5 -16t225.5 16t175 50t70 80q0 69 -154 110q-4 1 -6 1v0z" />
    <glyph glyph-name="user" unicode="&#xe60e;" 
d="M501 -128q-108 5 -190 20t-157 53q-59 30 -79 67.5t-13 104.5q24 231 240 347q17 9 22 12t13.5 10.5t8 13.5t-3.5 17t-13 25q-47 70 -36.5 152.5t70.5 138.5q57 54 141.5 62t151.5 -35q68 -43 94.5 -120t-1.5 -154q-29 -80 -99.5 -122.5t-155.5 -24.5q-63 15 -117.5 5.5
t-103.5 -46.5q-137 -104 -163 -250q-16 -82 7 -121.5t103 -65.5q290 -94 580 -1q84 27 108.5 73.5t1.5 132.5q-35 138 -157 230q-3 2 -9 5.5t-10 6t-7.5 6.5t-2.5 10t6 13q7 9 14.5 10.5t11.5 -0.5t11.5 -9t9.5 -9q166 -122 186 -321q11 -115 -103 -168
q-78 -36 -164.5 -50.5t-194.5 -17.5v0zM719 665q0 81 -54.5 134.5t-135.5 53.5q-85 1 -140 -54t-54 -138q2 -80 57 -132.5t137 -51.5q82 0 136 54t54 134v0z" />
    <glyph glyph-name="tradeList" unicode="&#xe60f;" 
d="M669 666q-8 0 -14 5q-3 2 -12 20v0q-1 3 -1 8.5t0.5 11t0.5 6.5v128q2 0 2.5 -0.5t2 -1t3.5 -1.5q8 -2 20 -9t28 -20t42 -34q27 -24 42.5 -40t24.5 -28q8 -11 10.5 -18.5t2.5 -13.5l6 -13h-158zM789 300q47 0 87 -16.5t70.5 -46t47.5 -68t17 -83.5t-17 -83.5t-47.5 -68
t-70.5 -46t-87 -16.5q-45 0 -85.5 16.5t-70.5 46t-47.5 68t-17.5 83.5t17.5 83.5t47.5 68t70.5 46t85.5 16.5v0zM932 128h-105v77v7.5v13v5.5h-27h-52q-2 2 -1 -14q1 -11 1 -12v-102v-26q0 -5 6.5 -9t7.5 -6q7 -10 16 -10l154 -1v0v20v37v20zM511 103q0 -3 -5 -1t-5 0v-15
q0 -44 13 -83t37 -73h-357q-19 0 -42 11t-42.5 28.5t-32.5 40t-13 46.5v662q0 21 10 43t26 40.5t37.5 30.5t44.5 12h382v-128q0 -6 1.5 -11t4 -11.5t4.5 -11.5q6 -21 19 -39.5t33 -29.5q4 -3 12 -10t15.5 -11t15.5 -4h158l-6 -229q-8 2 -18 2h-18q-75 0 -138 -34
q-33 -18 -49 -31.5t-34 -40.5h-316q-8 0 -14.5 -6.5t-13.5 -16.5t-12 -14q-18 -17 -18 -42.5t18 -43.5q3 -2 11.5 -12t14.5 -14t14 -4h263zM248 486q-4 0 -8 -1t-7 -2t-7 -4.5t-5.5 -4.5t-6.5 -6l-6 -6q-18 -18 -18 -43t18.5 -42.5t44.5 -17.5h378q26 0 44.5 17.5t18.5 43
t-19 42.5q-2 3 -8.5 11t-11 10.5t-12.5 2.5h-395zM248 486z" />
    <glyph glyph-name="orders" unicode="&#xe610;" 
d="M883 -47q0 -19 -14 -33t-34 -14h-23q-6 -6 -7 -8h-311l-93 8h-238q-20 0 -34 14t-14 33v820q0 19 14 33t34 14h672q20 0 34 -14t14 -33v-261l-6 -298l6 5v-266v0zM235 375h312q20 0 34 9t14 22t-14 22t-34 9h-312q-20 0 -34 -9t-14 -22t14 -22t34 -9zM739 749h-504
q-20 0 -34 -8.5t-14 -20.5t14 -20t34 -8h504q20 0 34 8t14 20t-14 20.5t-34 8.5zM739 595h-504q-20 0 -34 -9t-14 -21.5t14 -21t34 -8.5h504q20 0 34 8.5t14 21t-14 21.5t-34 9z" />
    <glyph glyph-name="setting" unicode="&#xe611;" 
d="M924 283l-18 9q-21 12 -33.5 33.5t-12.5 46.5t12.5 46t33.5 33l18 9q14 7 21 21.5t4 29.5q-5 15 -11 31v0q-7 15 -14 29q-9 13 -24.5 18t-30.5 1l-19 -6q-52 -14 -90 23.5t-24 88.5l6 19q4 15 -1 30t-18 24q-16 7 -30 13v0q-15 6 -31 11q-16 3 -30.5 -4t-21.5 -20l-9 -18
q-13 -21 -34.5 -33t-47 -12t-47 12t-33.5 33l-9 18q-8 13 -22.5 20t-29.5 4q-15 -4 -31 -11v0q-16 -6 -31 -13q-12 -9 -17.5 -24t-0.5 -30l6 -19q13 -51 -24.5 -88.5t-90.5 -23.5l-19 6q-15 4 -30 -1t-24 -18q-8 -14 -14 -29v0q-6 -15 -12 -31q-2 -15 5 -29.5t21 -21.5
l17 -9q22 -12 34.5 -33t12.5 -46t-12.5 -46t-34.5 -34l-17 -9q-14 -7 -21 -21.5t-5 -29.5l12 -30v0q6 -15 14 -30q9 -12 24 -17.5t30 -0.5l19 6q52 13 90 -24.5t25 -88.5l-6 -19q-5 -14 0.5 -29t17.5 -24q16 -8 31 -14v0q14 -6 31 -11q15 -3 29.5 4t21.5 21l10 17
q12 21 33.5 33.5t47 12.5t47 -12.5t34.5 -33.5l9 -17q7 -14 21.5 -21t30.5 -4q15 5 31 11v0q16 7 30 14q13 9 18 24t1 29l-6 19q-14 51 24 88.5t90 24.5l19 -6q15 -5 30.5 0.5t24.5 17.5q8 15 13 30v0q7 14 12 30q3 15 -4 29.5t-21 21.5v0v0zM520 148q-95 0 -161.5 65.5
t-66.5 158t66.5 158.5t161 66t161.5 -66t67 -158.5t-67 -158t-161 -65.5v0v0z" />
    <glyph glyph-name="special-offer" unicode="&#xe613;" 
d="M577 682q-3 5 -8 8q-7 8 -17 9l-286 30l-20 36q-6 9 -16 11.5t-19 -2.5t-12 -15.5t3 -19.5l21 -37l-116 -260q-5 -10 -1 -19q0 -6 3 -12l260 -449q5 -9 15 -12t20 2l424 245q9 5 11.5 15.5t-2.5 19.5zM400 9l-243 421l97 218l53 -92q1 -1 2 -3q-20 -20 -23.5 -48.5
t11.5 -54.5q18 -31 53 -40.5t66 8.5t40.5 53t-8.5 66q-15 25 -41.5 36.5t-53.5 5.5l-2 2l-53 93l239 -25l243 -420l-380 -220v0zM354 525.5q13 7.5 27.5 3.5t22 -17t3.5 -27.5t-17 -22t-27.5 -3.5t-22 17t-3.5 27.5t17 22zM915 317l-268 464q-3 5 -8 9q-7 7 -17 8l-274 25
q-11 1 -19 -6t-9 -17.5t5.5 -18.5t17.5 -9l264 -24l264 -457q6 -9 16 -12t19 2.5t12 15.5t-3 20z" />
    <glyph glyph-name="wallet" unicode="&#xe614;" 
d="M990 22q0 -21 -7 -39t-19.5 -31.5t-29 -21t-36.5 -7.5h-761q-20 0 -37.5 7.5t-31.5 21t-21.5 31.5t-7.5 39v541q0 41 27.5 70t67.5 29h761q39 0 67 -29t28 -70v-147h-238q-40 0 -67.5 -28.5t-27.5 -69.5q1 -28 11 -50q9 -19 28 -34t56 -15h238v-197v0zM847 712h-475
q57 31 107 58q42 23 87 48q41 23 67 37q36 21 65 19t49 -10q23 -12 40 -32zM705 318q0 21 13.5 35t33.5 14t33.5 -14.5t13.5 -35t-13.5 -35t-33.5 -14.5t-33.5 14.5t-13.5 35.5v0v0z" />
    <glyph glyph-name="enshrine" unicode="&#xe615;" 
d="M965 183l-68 -82q-13 -14 -11 -34l5 -103l1 -20q1 -14 -10.5 -22.5t-24.5 -2.5l-103 48q-21 9 -41 0l-105 -49q-12 -5 -23.5 3t-10.5 22l5 123q1 21 -12 36l-63 78q-11 13 -6.5 29.5t21.5 21.5l100 29q14 5 23 18l66 97q9 14 25.5 14t25.5 -14l64 -95q10 -15 28 -21
l100 -29q15 -4 19.5 -19.5t-5.5 -27.5zM835 298l-73 107q-10 16 -28.5 16t-29.5 -16l-74 -110q-10 -15 -27 -20l-114 -33q-18 -6 -23.5 -24.5t6.5 -33.5l73 -89q14 -17 13 -41l-3 -74h-396q-40 0 -67.5 19t-27.5 55v640q0 36 28.5 59.5t66.5 23.5h620q38 0 68 -23.5
t30 -59.5v-423l-10 3q-20 6 -32 24zM690 625q-18 0 -31 -13.5t-13 -32.5q0 -22 18 -36q-12 -73 -67.5 -121t-128 -48t-127.5 48t-68 121q19 14 19 36q0 19 -13 32.5t-31.5 13.5t-31.5 -13.5t-13 -32.5q0 -28 26 -41q14 -90 82 -150t158 -60t157.5 60t82.5 150q25 13 25 41
q0 19 -13 32.5t-31 13.5z" />
    <glyph glyph-name="annuity" unicode="&#xe616;" 
d="M512 -77q-221 0 -321.5 77t-100.5 238q0 130 91.5 251t221.5 165h218q130 -44 221.5 -165t91.5 -251q0 -161 -100.5 -238t-321.5 -77v0zM629 271v0q15 0 25.5 10t10.5 24.5t-10.5 24.5t-25.5 10v1h-72v0.5v1.5l84 84q17 18 -7 41q-10 10 -25 12t-23 -7l-73 -76l-79 77
q-8 7 -20.5 5t-23 -12t-12.5 -22.5t5 -19.5l81 -78q-2 -3 -3 -6l-66 -1q-15 0 -25.5 -10t-10.5 -24.5t10.5 -24.5t25.5 -10v0v0h72v-35h-72v0v0q-15 0 -25.5 -10t-10.5 -24.5t10.5 -24.5t25.5 -10v0v0h72v-35h1q-1 -5 -1 -9q0 -18 13 -30.5t32 -12.5t32 12.5t13 30.5
q0 4 -1 9v0v35h73q15 0 25.5 10t10.5 24.5t-10.5 24.5t-25.5 10v0h-73v35h73zM683 793l-8 -10v0v0l-64 -77h-216l-64 77l-0.5 0.5l-0.5 0.5l-7 9l2 2q-2 5 -2 6q0 18 17 25l1 1q89 17 162 18q34 0 74.5 -4.5t63.5 -8.5l24 -5l1 -1q17 -7 17 -25q0 -1 -2 -6z" />
    <glyph glyph-name="message" unicode="&#xe617;" 
d="M205 26q10 5 20.5 1.5t15.5 -13.5t1 -20t-13 -15l-140 -68q-11 -6 -22 -6h-1q-13 0 -22 6q-12 9 -15 25q-2 12 4 28v0l49 146q-38 59 -59 126q-23 74 -23 151q0 103 39.5 196t110 163.5t163.5 110t197 39.5t197 -39.5t164 -110t110 -163.5t39 -196.5t-39 -196.5
t-110 -163.5t-164 -110t-197 -39.5q-45 0 -91 9q-46 8 -88 24q-10 4 -14.5 14t-1 20t13.5 14.5t20 0.5q39 -14 79 -22q40 -7 82 -7q93 0 176.5 35.5t147 98.5t98.5 146.5t35 176.5t-35 176t-98.5 146.5t-147 98.5t-176.5 35t-176.5 -35t-146.5 -98.5t-98.5 -146.5
t-35.5 -176q0 -70 20 -135q20 -66 59 -122q10 -12 3 -27l-45 -133l115 56v0zM279 356q0 11 7.5 19t18.5 8t19 -8t8 -19q0 -74 52 -126v0q52 -52 126 -52t126 52l2 1q51 52 51 125q0 11 7.5 19t18.5 8t19 -8t8 -19q0 -94 -67 -162l-1 -1q-68 -68 -164 -68t-164 68v0
q-67 68 -67 163v0zM681 476q0 -11 -7.5 -19t-18.5 -8t-19 8t-8 19q0 39 28 67t67.5 28t67 -28t27.5 -67q0 -11 -7.5 -19t-18.5 -8t-18.5 8t-7.5 19q0 17 -12.5 29.5t-30 12.5t-30 -12.5t-12.5 -29.5v0zM255 476q0 -11 -8 -19t-19 -8t-18.5 8t-7.5 19q0 39 28 67t67 28
t67 -28t28 -67q0 -11 -7.5 -19t-18.5 -8t-19 8t-8 19q0 17 -12.5 29.5t-29.5 12.5t-29.5 -12.5t-12.5 -29.5v0z" />
    <glyph glyph-name="coupon" unicode="&#xe618;" 
d="M969 273l-295 -328q-18 -20 -45 -21.5t-47 17.5l-497 460q-25 23 -20 58l34 268q3 21 16.5 36.5t34.5 19.5l259 60q34 8 59 -16l496 -460q20 -19 21.5 -46.5t-16.5 -47.5zM301 683q-20 19 -47.5 18t-46.5 -21.5t-18 -48.5t21.5 -47t48 -18t46 21.5t17.5 48.5t-21 47z
M504 502q-15 17 -42 17q-28 0 -44.5 -18.5t-16.5 -50.5q0 -29 16 -46.5t42 -17.5q27 0 43.5 19t16.5 49.5t-15 47.5zM602 515l-162 -258h27l162 258h-27zM655 371q-15 17 -42 17t-44 -19t-17 -50q0 -29 16 -46.5t42 -17.5q27 0 43.5 18.5t16.5 48.5q0 32 -15 49zM611 276
q-15 0 -24.5 11.5t-9.5 32.5q0 22 9.5 34t25.5 12t24.5 -11.5t8.5 -33t-8.5 -33.5t-25.5 -12zM461 407q-16 0 -25 12t-9 33q0 22 9 34t25 12t25 -11.5t9 -33.5t-9 -34t-25 -12z" />
    <glyph glyph-name="aftermarket" unicode="&#xe619;" 
d="M625 280q9 0 15 -6.5t6 -15.5t-6 -15t-15 -6v-1h-126v-127v0q0 -9 -6 -15.5t-14.5 -6.5t-15 6.5t-6.5 15.5v0v0v127l-126 1q-8 0 -14 6t-6 15t6 15t14 6v1h126v66h-126q-8 0 -14 6.5t-6 15t6 15t14 6.5v0h126v41l-129 130v0q-7 6 -7.5 15t5.5 15.5t14.5 7t14.5 -5.5
l124 -124l117 119q6 5 15 4.5t14.5 -7t5 -15.5t-6.5 -15v0l-125 -125v-40h126q9 0 15 -6t6 -15t-6 -15.5t-15 -6.5v0h-126v-66h126zM1006 428v0l-74 -96v0q-7 -8 -17 -9t-18 5v0l-92 77v0q-8 6 -9 16.5t5 18.5t16 9t18 -5l50 -42q-2 27 -7 53q-23 115 -97 200t-179 121
t-215 12t-192 -100.5t-117 -184.5t-12 -222t96.5 -199t178.5 -121.5t215 -12.5q120 26 207 116h1q6 7 14 7t14 -6t6 -14q0 -6 -3 -11q0 -1 -1 -2t-1 -2h-1q-97 -100 -228 -128q-122 -27 -237.5 13t-197 134t-107 220t13 245.5t129.5 204t212.5 110.5t237 -14t197 -133.5
t107.5 -219.5q6 -30 8 -62l41 53q7 8 16.5 9t17.5 -5.5t9 -16.5t-5 -18z" />
    <glyph glyph-name="block" unicode="&#xe61b;" 
d="M923 734h-821q-41 0 -69.5 -29t-28.5 -70v-498q0 -41 28.5 -69.5t69.5 -28.5h821q40 0 69 28.5t29 69.5v498q0 41 -29 70t-69 29zM102 693h821q23 0 40 -17t17 -41v-57h-935v57q0 24 16.5 41t40.5 17zM923 80h-821q-24 0 -40.5 16.5t-16.5 40.5v315h935v-315
q0 -24 -17 -40.5t-40 -16.5z" />
    <glyph glyph-name="position" unicode="&#xe61f;" 
d="M512 857q-101 0 -187.5 -52t-136.5 -141t-50 -193q0 -60 19 -124.5t47 -118t67 -108.5t71.5 -93t68.5 -74.5t50.5 -49.5t24.5 -21q11 -10 26 -10t26 10q10 8 24.5 21t50.5 49.5t68.5 74.5t71.5 93t67 108.5t47 118t19 124.5q0 104 -50 193t-136.5 141t-187.5 52v0z
M512 375q-58 0 -98.5 42t-40.5 101t40.5 100.5t98.5 41.5t98.5 -41.5t40.5 -100.5t-40.5 -101t-98.5 -42v0z" />
    <glyph glyph-name="benefit" unicode="&#xe620;" 
d="M855 -96h-686q-57 0 -97 40t-40 97v686q0 57 40 97t97 40h686q57 0 97 -40t40 -97v-686q0 -57 -40 -97t-97 -40zM338 120q0 -41 22 -55.5t86 -14.5h171q50 0 68.5 20.5t23.5 83.5q-28 5 -49 19q-3 -49 -11.5 -62t-35.5 -13h-164q-36 0 -46 4t-10 19v105h-55v-106z
M608 183q-46 44 -127 82l-36 -30q83 -42 125 -86zM228 63q34 45 70 147l-47 19q-32 -93 -71 -139zM780 378v210h-240v49h293v46h-293v45h-57v-45h-285v-46h285v-49h-234v-210h234v-59q-216 -1 -286 -1l3 -50q225 3 551 10q38 -29 50 -42l38 32q-29 28 -79 59.5t-98 50.5h118
zM753 228l-47 -16q63 -79 86 -143l51 18q-23 63 -90 141zM540 378h116l-35 -26q38 -17 63 -31q-97 -1 -144 -1v58zM540 465h185v-49h-185v49zM540 551h185v-49h-185v49zM303 465h180v-49h-180v49zM303 551h180v-49h-180v49z" />
    <glyph glyph-name="arrow-right" unicode="&#xe621;" 
d="M267 -116q-10 10 -10.5 24.5t8.5 25.5l401 430q13 13 13 19.5t-13 20.5l-401 431q-9 10 -8.5 24.5t10.5 25.5q10 10 24 11t23 -10l446 -477q7 -9 8 -22v-6q-1 -13 -8 -21l-446 -478q-9 -10 -23 -9.5t-24 11.5v0z" />
    <glyph glyph-name="evaluate" unicode="&#xe622;" horiz-adv-x="1026" 
d="M316 585l165 290q10 21 33 21v0q23 0 33 -21l138 -295l310 -48q22 -4 29 -25t-9 -37l-225 -230l52 -325q4 -23 -15 -36q-8 -7 -20 -7v0q-10 0 -18 5l-277 152l-277 -151q-20 -12 -38.5 1.5t-14.5 35.5l53 326l-225 231q-15 16 -8 36q7 21 29 25l177 31z" />
    <glyph glyph-name="special" unicode="&#xe623;" 
d="M32 864h960v-960h-960v960zM314 499v-190q-63 -20 -139 -35l12 -50q66 17 127 37v-221h51v239q41 15 68 27v49q-31 -14 -68 -28v172h61v50h-61v150h-51v-150h-62q5 41 7 93l-48 4q-4 -128 -40 -239l48 -14q15 52 26 106h69zM611 623h-126v-47h126v-85h-166v-49h383v49
h-165v85h133v47h-133v77h-52v-77zM461 304h227v-181q0 -31 -28 -31q-22 0 -78 3l11 -50h85q63 0 63 65v194h80v49h-80v53h-53v-53h-227v-49zM474 248q52 -60 84 -115l41 29q-30 46 -84 111z" />
    <glyph glyph-name="pull-down" unicode="&#xe624;" horiz-adv-x="1975" 
d="M191 788q17 16 40 17t39 -14l684 -660q21 -21 32 -21t33 21l683 660q16 15 39.5 14t40.5 -17q17 -17 18 -40t-15 -38l-760 -734q-13 -13 -34 -14h-9q-21 1 -34 14l-760 734q-16 15 -15 38t18 40v0z" />
    <glyph glyph-name="shop" unicode="&#xe625;" horiz-adv-x="1103" 
d="M946 -126h-798q-44 0 -69 31.5t-25 79.5v798q0 46 32.5 78.5t78.5 32.5h798q46 0 78.5 -32.5t32.5 -78.5v-798q0 -45 -40.5 -78t-87.5 -33zM399 19h59v48h337v-48h59v318h-220v105h278v53h-278v93h-61v-251h-174v-318v0zM930 663h-285q-26 49 -55 93l-53 -26
q22 -33 40 -67h-310v-289q0 -205 -80 -310q25 -28 42 -51q92 116 100 347v249h601v54zM795 119h-337v164h337v-164z" />
    <glyph glyph-name="add" unicode="&#xe627;" horiz-adv-x="1062" 
d="M948 431h-359v356q0 19 -14 33t-33.5 14t-33.5 -14t-14 -33v-356h-358q-20 0 -34 -13.5t-14 -33.5t14 -33.5t34 -13.5h358v-356q0 -19 14 -33t33.5 -14t33.5 14t14 33v356h359q19 0 33 13.5t14 33.5t-14 33.5t-33 13.5v0z" />
    <glyph glyph-name="more" unicode="&#xe628;" 
d="M690 396q0 -35 26 -59.5t63 -24.5t63 24.5t26 59.5t-26 59.5t-63 24.5t-63 -24.5t-26 -59.5v0zM334 396q0 35 -26 59.5t-63 24.5t-63 -24.5t-26 -59.5t26 -59.5t63 -24.5t63 24.5t26 59.5v0zM601 396q0 35 -26 59.5t-63 24.5t-63 -24.5t-26 -59.5t26 -59.5t63 -24.5
t63 24.5t26 59.5v0z" />
    <glyph glyph-name="information" unicode="&#xe629;" 
d="M889 374q0 51 38 51q20 0 32.5 -14t12.5 -37v0v-332q0 -57 -34.5 -97.5t-83.5 -40.5h-705q-48 0 -82.5 40.5t-34.5 97.5v664q0 57 34.5 97.5t82.5 40.5h705q49 0 83.5 -40.5t34.5 -97.5v-83h-1q1 -35 -22 -52l-424 -300l-0.5 -0.5t-1.5 -0.5l-1 -1h-1q-27 -16 -50 9
l-252 187q-20 17 -24 38t8 35q10 14 28 17.5t35 -7.5l237 -183l398 277v36q1 41 -22.5 65.5t-47.5 24.5h-658q-40 -1 -55.5 -27.5t-14.5 -62.5v-608q-5 -39 20.5 -64.5t49.5 -25.5h658q24 0 42.5 22t15.5 68v304z" />
    <glyph glyph-name="camera" unicode="&#xe638;" horiz-adv-x="1204" 
d="M1071 -98h-937q-56 0 -95 39.5t-39 95.5v615q0 55 39 94.5t95 39.5h133q11 24 16 36q17 44 33 59t45 15h486q28 0 41.5 -12t29.5 -45q7 -16 23 -53h130q55 0 94.5 -39.5t39.5 -94.5v-615q0 -56 -39.5 -95.5t-94.5 -39.5zM1156 652q0 35 -25 60t-60 25h-146q-16 0 -23 17
q-2 4 -18 41l-13 28v2q-3 7 -5.5 10.5t-7.5 7.5t-13 4h-484q-18 0 -30 -32q-1 -3 -2 -4l-8 -19q-9 -22 -16 -38q-7 -17 -28 -17h-143q-35 0 -60 -25t-25 -60v0v-615q0 -36 25 -60.5t60 -24.5h937q35 0 60 24.5t25 60.5v615zM1017 571h-62q-10 0 -17 7t-7 17v0q0 11 7 18
t17 7h62q10 0 17 -7.5t7 -17.5v0q0 -10 -7 -17t-17 -7zM602.5 68q-113.5 0 -193.5 81t-80 195t80 195t193.5 81t193.5 -81t80 -195t-80 -195t-193.5 -81zM602.5 572q-93.5 0 -160 -67t-66.5 -161t66.5 -161t160 -67t160 67t66.5 161t-66.5 161t-160 67z" />
    <glyph glyph-name="index" unicode="&#xe640;" 
d="M977 391q-14 -14 -27 0l-421 415q-11 11 -27.5 11t-27.5 -11l-421 -414q-6 -6 -13.5 -6t-13.5 6q-14 14 0 27q70 69 209.5 207t209.5 206q23 23 55.5 23t55.5 -23l421 -413q6 -6 6 -14t-6 -14zM176.5 441q8.5 0 14 -5t5.5 -14v-414q0 -16 11.5 -27t27.5 -11h128v307
q0 32 23 55t56 23h121q32 0 55 -23t23 -55v-304h129q15 0 26.5 11t11.5 27v411q0 9 5.5 14t14.5 5q7 0 13 -5.5t7 -13.5v-411q0 -32 -23 -55t-55 -23h-534q-32 0 -55 23t-23 55v411q0 9 5 14t13.5 5zM402 -30h197v307q0 16 -11 27t-27 11h-121q-15 0 -26.5 -11t-11.5 -27
v-307z" />
    <glyph glyph-name="deleted" unicode="&#xe647;" 
d="M622 93q-15 0 -27.5 12.5t-12.5 27.5v402q0 15 12.5 27.5t27.5 12.5t28 -12.5t13 -27.5v-402q-8 -7 -14.5 -18.5t-12 -16.5t-14.5 -5zM402 93q-15 0 -28 12.5t-13 27.5v402q0 15 13 27.5t28 12.5t27.5 -12.5t12.5 -27.5v-402q0 -15 -12.5 -27.5t-27.5 -12.5zM984 715
h-181v81q0 43 -36.5 71.5t-83.5 28.5h-362q-45 0 -72.5 -27.5t-27.5 -72.5v-81h-181q-15 0 -27.5 -12.5t-12.5 -27.5t12.5 -27.5t27.5 -12.5h944q15 0 27.5 12.5t12.5 27.5t-12.5 27.5t-27.5 12.5zM281 796q0 15 12.5 27.5t27.5 12.5h362q15 0 27.5 -12.5t12.5 -27.5v-81
h-442v81zM763 -128h-502q-45 0 -82.5 37.5t-37.5 82.5v543q0 15 12.5 27.5t27.5 12.5t27.5 -12.5t12.5 -27.5v-543q0 -15 12.5 -27.5t27.5 -12.5h502q15 0 27.5 12.5t12.5 27.5v543q0 15 12.5 27.5t27.5 12.5t27.5 -12.5t12.5 -27.5v-543q-17 -51 -47.5 -85.5t-72.5 -34.5z
M763 -128z" />
    <glyph glyph-name="scan-pay" unicode="&#xe64c;" 
d="M512 896q-139 0 -257 -68.5t-186.5 -186.5t-68.5 -257t68.5 -257t186.5 -186.5t257 -68.5t257 68.5t186.5 186.5t68.5 257t-68.5 257t-186.5 186.5t-257 68.5zM768 430q0 -9 -9 -9v0h-229v-165h229q9 0 9 -9v-18v0q0 -10 -9 -10v0h-229v-155q0 -9 -9 -9v0h-18q-9 0 -9 9
v0v155h-229v0q-9 0 -9 10v0v18q0 9 9 9h229v165h-229q-9 0 -9 9v18q0 9 9 9h203l-170 170q-5 5 -5 13t5 13t12.5 5t13.5 -5l188 -188l188 188q6 5 13.5 5t12.5 -5t5 -13t-5 -13l-170 -170h203q9 0 9 -9v-18z" />
    <glyph glyph-name="arch" unicode="&#xe64d;" 
d="M512 896q-104 0 -199 -40.5t-163.5 -109t-109 -163.5t-40.5 -199t40.5 -199t109 -163.5t163.5 -109t199 -40.5t199 40.5t163.5 109t109 163.5t40.5 199t-40.5 199t-109 163.5t-163.5 109t-199 40.5zM768 348q20 -12 13 -32q-9 -16 -31 -7q-95 48 -145 100h-163
q-43 -45 -90 -70h314q57 4 48 -50q-5 -100 -16 -129q-16 -47 -79 -50q-73 0 -145 43q-20 14 -11 30q13 18 34 6q135 -63 160 -9q7 21 14 91q2 27 -25 27h-145q-47 -147 -215 -179q-25 -4 -31 16q-3 21 20 27q145 32 176 136h-99q-27 4 -18 29q-23 -10 -57 -27q-22 -9 -34 5
q-9 20 9 31q86 34 129 73h-120q-20 2 -20 22.5t20 20.5h159q9 11 25 45q4 4 4 7h-156q-18 0 -18 20t18 20h72q-18 46 -34 71q-11 18 10 31q18 9 31 -9q18 -29 34 -72q5 -12 0 -21h59q16 68 18 95q4 21 27 18q20 -4 18 -27q-11 -60 -18 -86h75q2 5 11 25q23 48 27 61
q9 23 30 16q18 -9 11 -32q-9 -24 -30 -70h107q18 0 18 -20t-18 -20h-244q-12 -28 -25 -52h291q18 0 21 -21q0 -20 -18 -22h-102q34 -32 104 -61z" />
    <glyph glyph-name="tel" unicode="&#xe64e;" 
d="M322 351q-15 19 -28 39q-52 76 -53 114q-1 29 30 50q13 8 44 21q25 11 34 17q9 5 12 9q-2 14 -19 47q-84 154 -219 260l88 -81q-1 1 -5 3q-6 4 -8 5q-11 -3 -29 -19q-26 -22 -50 -56q-58 -78 -58 -135q0 -63 71 -180q74 -118 185 -232l24 -24q114 -111 232 -185
q117 -72 180 -72q56 0 135 59q34 24 56 50q16 18 19 29q-5 11 -32 36t-74 58q-140 98 -310 132l183 -63h-1v0q-4 -3 -9 -12q-6 -9 -17 -34q-13 -31 -21 -43q-21 -31 -49 -31h-1q-38 1 -115 53q-184 128 -294 318q53 -66 96 -109.5t68 -60t41 -22.5t24.5 -5.5t9.5 -0.5
q154 -137 351 -194l-189 83h2q2 -1 3 -1q6 7 19 37q15 34 25 49q23 34 56 34q25 0 75 -27q169 -92 284 -240q-145 144 -129 134q5 -3 21 -18q44 -42 44 -72q0 -23 -21 -52t-39 -45t-37 -30q-96 -72 -174 -72q-80 0 -211 81q-125 77 -244 193v0l-24 24q-116 119 -193 244
q-81 131 -81 211q0 78 72 175q14 18 30 36t45 39t52 21q30 0 72 -44q31 -32 67 -83q109 -154 147 -341q-59 173 -63 173q0 -33 -34 -56q-15 -10 -49 -25q-30 -13 -37 -19q6 -24 42 -77q10 -15 20 -29q17 -22 -2 -44q-18 -20 -35 -5q-3 2 -5 5z" />
    <glyph glyph-name="place" unicode="&#xe64f;" 
d="M526 -91q-6 -5 -14 -5t-14 5q-10 7 -26 20.5t-54.5 48.5t-73.5 72.5t-77 91.5t-72 106.5t-50.5 116t-20.5 122.5q0 102 52 189t141.5 137.5t194.5 50.5t194.5 -50.5t141.5 -137.5t52 -189q0 -59 -20.5 -122.5t-50.5 -116t-72 -106.5t-77 -91.5t-73.5 -73t-54.5 -48.5
t-26 -20zM512 782q-142 0 -223 -78.5t-81 -216.5q0 -67 26.5 -137.5t60.5 -122.5t82.5 -105.5t76.5 -79t58 -49.5q30 24 58 49.5t76.5 79t82.5 105.5t60.5 122.5t26.5 137.5q0 138 -81 216.5t-223 78.5zM725 447q-3 -16 -19.5 -30t-39.5 -7q-21 6 -28 19.5t-5 27.5
q3 16 3 27q0 54 -33.5 87t-89.5 34q-50 0 -88 -33.5t-36 -87.5q3 -57 40 -90t80 -31q21 2 31 3q43 6 53 -37q5 -22 -10 -35.5t-32 -16.5q-19 -4 -40 -4q-88 0 -151 62t-63 149t63.5 149t152.5 62t152 -62t63 -149q0 -17 -3 -37z" />
    <glyph glyph-name="red-pack" unicode="&#xe650;" 
d="M804 -128h-584q-54 0 -92 40t-38 97v682l390 -136h64l390 136v-682q0 -57 -38 -97t-92 -40zM546 215l94 1q32 -1 33 28q0 12 -9.5 25.5t-23.5 13.5h-95v24q72 77 90 95q28 26 12 46q-9 11 -22 10.5t-25 -10.5l-88 -84q-63 68 -76 82q-11 11 -25.5 14.5t-26.5 -7.5
q-9 -15 -6 -27t12 -21l87 -97v-26h-98q-10 0 -18.5 -14.5t-8.5 -26.5q0 -11 8 -18.5t19 -7.5h98v-73h-102q-11 0 -19 -9t-8 -21q-1 -11 7 -22.5t20 -11.5h101q0 -25 1 -35q2 -33 35 -33q14 -1 23.5 9.5t9.5 22.5v36v0q84 1 100 0q12 0 20 10.5t8 23.5q-1 31 -35 31h-93z
M544 623h-64l-390 136q0 57 38 97t92 40h584q54 0 92 -40t38 -97zM544 623z" />
    <glyph glyph-name="integral" unicode="&#xe651;" horiz-adv-x="1064" 
d="M814 -111q-7 -5 -15 -5v0q-15 0 -23 12q-5 7 -5 15q0 15 12 23q104 68 164.5 176.5t60.5 234.5q0 101 -40.5 193t-109 158.5t-163 105.5t-198.5 40q-8 0 -20 -1v0q-11 0 -19.5 7.5t-9 18.5t7.5 19.5t19 8.5q12 1 22 1q116 0 221 -43.5t180.5 -117.5t120.5 -176t45 -214
q0 -140 -67.5 -260.5t-182.5 -195.5zM961 339q0 -95 -38 -181.5t-102.5 -149t-153.5 -99.5t-186.5 -37t-186.5 37t-153.5 99.5t-102.5 149t-38 181.5t38 181.5t102.5 149t153.5 99.5t186.5 37t186.5 -37t153.5 -99.5t102.5 -149t38 -181.5zM606 236q35 -46 83 -125
q12 -21 30 -21q7 0 14 3v0h1q30 18 20 49h-1q-37 76 -84 136v0v1q-27 22 -53 7v0q-15 -11 -17 -24q-3 -12 7 -26zM402 88l1 -1v0q14 -10 28 -10q16 0 31 12l1 1q62 67 101 140q18 33 -15 54v0q-9 4 -20 5q-19 0 -33 -23v0q-44 -79 -89 -125q-28 -27 -5 -53zM445 533v-80
q-8 17 -27 19h-35v56h8h1l17 5q35 7 33 40v1v0q-9 29 -37 29q-5 0 -9 -1v0q-39 -8 -118 -17h-17h-1q-37 -8 -37 -43v0v-1q4 -27 35 -27q5 0 10 1h22v0q13 1 21 3v-46h-53q-33 -2 -35 -36v0q0 -36 31 -36h51q-28 -104 -77 -182v0q-18 -34 11 -50v0q10 -4 18 -4q19 0 32 19h1
q11 18 21 43v-119q0 -29 35 -32h1v0q33 3 36 31v1v166q5 -6 8 -10v0q13 -16 28 -16q10 0 21 8v1q23 22 6 54l-1 1q-6 8 -50 64l-12 16v9h34q20 0 28 18v-75q-1 -25 10 -37q9 -10 27 -10h3h200h7q19 0 30 10q11 12 10 37v190q1 25 -11 38q-15 15 -45 14h-186q-24 1 -36 -12
t-9 -40zM519 374v130q0 4 1 6t2 2h3h127q6 -1 6 -5v-133q0 -6 -6 -6h-126h-3q-3 0 -4 1t0 4v1z" />
    <glyph glyph-name="big" unicode="&#xe652;" 
d="M1020 -108l-17 -16q-3 -4 -8 -4t-9 4l-187 187q-3 3 -3 8t3 9l18 17q3 3 8 3t9 -3l186 -188q4 -3 4 -8t-4 -9v0zM460.5 -24q-93.5 0 -179 36.5t-147 98t-98 147t-36.5 179t36.5 178.5t98 146.5t147 98t179 36.5t179 -36.5t147 -98t98 -146.5t36.5 -178.5t-36.5 -179
t-98 -147t-147 -98t-179 -36.5zM455 820q-103 0 -190.5 -50.5t-138 -138t-50.5 -190.5t50.5 -190.5t138 -138t190.5 -50.5t190.5 50.5t138 138t50.5 190.5t-50.5 190.5t-138 138t-190.5 50.5z" />
    <glyph glyph-name="import" unicode="&#xe653;" 
d="M512 864q-98 0 -186.5 -38t-153 -102.5t-102.5 -153t-38 -186.5t38 -186.5t102.5 -153t153 -102.5t186.5 -38t186.5 38t153 102.5t102.5 153t38 186.5t-38 186.5t-102.5 153t-153 102.5t-186.5 38zM753 365h-223v-224h-35v224h-224v34h224v224h35v-224h223v-34z" />
    <glyph glyph-name="action-message" unicode="&#xe654;" 
d="M914 -128h-804q-46 0 -78 32t-32 78v804q0 46 32 78t78 32h804q46 0 78 -32t32 -78v-804q0 -46 -32 -78t-78 -32v0zM820 627l-28 28q-24 23 -56.5 23t-56.5 -23l-56 -55h-159h-1q-8 0 -14 -6l-219 -213q-23 -23 -23 -55t23 -55l197 -192q23 -23 56 -23t56 23l218 213
q5 4 5 11q1 0 1 5v0v155h1l56 55q23 22 23 54.5t-23 54.5v0zM746 546v0q-14 0 -23.5 9.5t-9.5 23t9.5 23t23.5 9.5v0q13 0 22.5 -9.5t9.5 -23t-9.5 -23t-22.5 -9.5zM664 368h-63l19 -18q5 -6 5 -14t-5.5 -13.5t-14 -5.5t-13.5 5l-43 41l-36 -35l42 -42q6 -5 6 -13t-6 -14
t-14 -6t-14 6l-42 41l-45 -43q-6 -6 -14 -6t-14 5.5t-6 13.5t6 14l44 44l-42 41q-5 5 -5 13t5.5 14t14 6t13.5 -6l43 -41l36 36l-42 41q-6 6 -6 14t6 13.5t14 5.5t14 -6l18 -16v59q0 8 5.5 13.5t14 5.5t14 -5.5t5.5 -13.5v-95h100q8 0 14 -5.5t6 -13.5t-6 -14t-14 -6v0v0z
" />
    <glyph glyph-name="deal-message" unicode="&#xe655;" 
d="M914 896h-804q-46 0 -78 -32t-32 -78v-804q0 -46 32 -78t78 -32h804q46 0 78 32t32 78v804q0 46 -32 78t-78 32v0zM771 238q-5 -20 -25 -20q-11 0 -19 8.5t-8 19.5v3l13 30q22 50 22 106q0 102 -70.5 175t-171 73t-171 -73.5t-70.5 -176t70.5 -175.5t171.5 -73
q78 0 142 48q8 8 20 8q10 0 18 -8t8 -20v-2q0 -5 -2 -8.5t-8.5 -8.5t-9.5 -9q-77 -55 -168 -55q-123 0 -209.5 89.5t-86.5 215t86.5 214.5t209 89t208.5 -89t86 -214q0 -80 -37 -149zM385 310q-10 0 -17.5 6.5t-7.5 16t7.5 16t17.5 6.5h258q10 0 16 -6q7 -7 7 -14v-1.5
t1 0.5q-1 -10 -9 -16l-69 -65q-7 -7 -16.5 -7t-16.5 6.5t-7 16t7 15.5l29 26h-200zM641 455q10 0 17.5 -6.5t7.5 -16t-7.5 -16.5t-17.5 -7h-258q-9 0 -16 7t-7 14q0 2 -1 2q2 10 9 16l69 65q7 6 16.5 6t16.5 -6t7 -15.5t-7 -15.5l-29 -27h200z" />
    <glyph glyph-name="system-message" unicode="&#xe656;" 
d="M914 896h-804q-46 0 -78 -32t-32 -78v-804q0 -46 32 -78t78 -32h804q46 0 78 32t32 78v804q0 46 -32 78t-78 32v0zM548 98q0 -20 -6 -30t-13 -12t-16 0.5t-12.5 4.5t-5.5 3v0l-228 192h-35q-17 0 -28.5 12t-11.5 28v1v160q0 17 11.5 29t28.5 12h42l221 187q2 2 5.5 4
t12.5 4.5t16 0.5t13 -12.5t6 -29.5v-554zM627 303q17 16 23 36t3 36.5t-8.5 31t-11.5 22.5l-6 8q0 2 1.5 5l5.5 11t8 12t10.5 8t13.5 -2q47 -35 48 -98t-48 -103q-20 -11 -34.5 4.5t-4.5 28.5zM699 162q-15 -6 -27.5 13.5t1.5 33.5q99 86 98.5 166t-98.5 163
q-11 14 -6.5 25.5t16 18.5t16.5 3q51 -23 84.5 -66t43 -93t1 -100.5t-42 -94.5t-86.5 -69z" />
    <glyph glyph-name="off" unicode="&#xe657;" 
d="M512 896q-139 0 -257 -68.5t-186.5 -186.5t-68.5 -257t68.5 -257t186.5 -186.5t257 -68.5t257 68.5t186.5 186.5t68.5 257t-68.5 257t-186.5 186.5t-257 68.5zM694 102l-182 240l-183 -240h-46l206 268l-186 241h48l161 -211l161 211h47l-185 -241l206 -268h-47z" />
    <glyph glyph-name="yen" unicode="&#xe658;" 
d="M889 864h-754q-43 0 -73 -30t-30 -73v-754q0 -43 30 -73t73 -30h754q43 0 73 30t30 73v754q0 43 -30 73t-73 30v0zM776 247h-244v-208q0 -12 -8.5 -20t-20 -8t-20 8t-8.5 20v208h-244q-12 0 -20 8t-8 19.5t8 20t20 8.5h244v139h-244v0q-12 0 -20.5 8t-8.5 20t8.5 20
t20.5 8h234l-223 210q-11 8 -11 22q0 12 8.5 20t19.5 8q12 0 20 -8l224 -210l225 210q8 7 18 7q11 0 19.5 -8.5t8.5 -19.5q0 -13 -9 -21l-224 -210h235q12 0 20.5 -8t8.5 -20t-8.5 -20t-20.5 -8h-244v-139h244q12 0 20.5 -8t8.5 -20t-8.5 -20t-20.5 -8z" />
    <glyph glyph-name="email" unicode="&#xe659;" horiz-adv-x="1206" 
d="M1080 -128h-953q-52 0 -89.5 37.5t-37.5 90.5v768q0 53 37 90.5t90 37.5h953q52 0 89.5 -37.5t37.5 -90.5v-128v0q0 -11 -7 -20t-17 -11q-51 -20 -564 -317q-7 -4 -16 -4t-17 5l-349 224q-15 10 -15 27q0 9 5 17q10 15 27 15q9 0 17 -5l333 -214q448 259 539 303v108
q0 26 -18.5 45t-44.5 19h-953q-26 0 -44.5 -19t-18.5 -45v-768q0 -26 18.5 -45t44.5 -19h953q26 0 44.5 19t18.5 45v384v0q0 13 9.5 22.5t22.5 9.5t22.5 -9.5t9.5 -22.5v-384q0 -53 -37.5 -90.5t-89.5 -37.5z" />
  </font>
</defs>
</svg>
